<svg width="14" height="14" viewBox="0 0 14 14" fill="none" xmlns="http://www.w3.org/2000/svg">
    <path d="M7.31956 12.1715C6.95197 12.6704 6.37953 12.977 5.76059 13.0075C5.14165 13.0383 4.54219 12.7888 4.12746 12.3282L0.410992 8.20395C-0.179673 7.54888 -0.127204 6.53909 0.527868 5.94843C1.18357 5.35776 2.19272 5.41055 2.78339 6.06593L5.41279 8.98406C5.45175 9.02742 5.5083 9.05067 5.56642 9.04784C5.62486 9.04502 5.67827 9.0158 5.71315 8.9693L11.1177 1.63909C11.6408 0.929038 12.6406 0.777916 13.3509 1.30134C14.0607 1.82477 14.2115 2.8245 13.6881 3.53424L7.31956 12.1715Z"
          fill="white"/>
</svg>
